<svg xmlns="http://www.w3.org/2000/svg" xmlns:xlink="http://www.w3.org/1999/xlink" width="1000" zoomAndPan="magnify" viewBox="0 0 750 749.999995" height="1000" preserveAspectRatio="xMidYMid meet" version="1.0"><path fill="#ffffff" d="M 364.050781 0.328125 C 301.441406 2.101562 240.449219 19.5 186.300781 51.089844 C 143.398438 76.109375 105.148438 110.191406 75.121094 150.148438 C 50.820312 182.488281 32.070312 218.28125 19.199219 256.859375 C 0.210938 313.738281 -4.710938 376.441406 5.101562 436.351562 C 13.46875 487.46875 31.980469 535.320312 60.390625 579.300781 C 70.859375 595.53125 83.21875 611.609375 96.898438 626.851562 C 102 632.488281 116.398438 647.011719 121.949219 652.050781 C 155.578125 682.710938 193.769531 706.738281 235.351562 723.449219 C 269.21875 737.039062 304.019531 745.441406 340.351562 748.769531 C 353.011719 749.941406 357 750.058594 378.898438 749.910156 C 400.949219 749.761719 403.46875 749.640625 417.75 748.050781 C 493.558594 739.5 564.71875 708.03125 622.351562 657.628906 C 674.371094 612.089844 712.980469 552.839844 733.46875 487.140625 C 741.660156 460.921875 746.488281 435.839844 749.28125 405.300781 C 750.03125 397.140625 750.210938 359.488281 749.550781 349.859375 C 744.03125 269.191406 713.550781 194.101562 661.320312 132.449219 C 654.808594 124.769531 649.261719 118.800781 640.230469 109.800781 C 625.351562 94.949219 611.878906 83.371094 595.800781 71.699219 C 538.648438 30.210938 472.289062 6.058594 401.699219 1.050781 C 395.578125 0.628906 377.039062 -0.03125 373.5 0.0585938 C 372.601562 0.0898438 368.339844 0.210938 364.050781 0.328125 Z M 343.769531 248.011719 C 373.410156 287.640625 397.800781 320.070312 397.949219 320.070312 C 398.128906 320.070312 428.28125 287.609375 465 247.949219 L 531.75 175.800781 L 568.261719 175.800781 L 567.238281 176.941406 C 566.699219 177.601562 532.171875 214.921875 490.5 259.921875 C 445.859375 308.128906 414.75 342 414.75 342.328125 C 414.75 342.628906 453.691406 394.949219 501.300781 458.578125 C 548.910156 522.238281 587.910156 574.410156 587.941406 574.558594 C 588 574.679688 559.648438 574.800781 524.941406 574.800781 L 461.820312 574.800781 L 403.320312 496.589844 C 371.160156 453.570312 344.640625 418.320312 344.398438 418.289062 C 344.128906 418.230469 313.679688 450.929688 271.5 496.5 L 199.050781 574.800781 L 162.570312 574.800781 L 163.410156 573.78125 C 163.859375 573.238281 200.96875 533.128906 245.851562 484.648438 C 305.671875 420.03125 327.449219 396.328125 327.449219 395.820312 C 327.449219 395.371094 299.640625 357.929688 245.851562 286.019531 C 200.96875 226.019531 164.070312 176.671875 163.859375 176.371094 C 163.46875 175.800781 165.148438 175.800781 226.679688 175.859375 L 289.921875 175.949219 Z M 343.769531 248.011719 " fill-opacity="1" fill-rule="nonzero"/><path fill="#ffffff" d="M 217.859375 203.21875 C 217.921875 203.488281 275.851562 281.101562 346.648438 375.75 L 475.320312 547.800781 L 504.511719 547.800781 C 529.050781 547.800781 533.699219 547.738281 533.699219 547.378906 C 533.699219 547.171875 475.800781 469.558594 405.058594 374.96875 L 276.390625 202.949219 L 247.078125 202.859375 C 221.488281 202.800781 217.769531 202.859375 217.859375 203.21875 Z M 217.859375 203.21875 " fill-opacity="1" fill-rule="nonzero"/></svg>